<svg xmlns="http://www.w3.org/2000/svg" width="741.7764892578125" height="809.939453125" viewBox="-348.6045837402344 -402.3467102050781 741.7764892578125 809.939453125"><title>Neo4j Graph Visualization</title><desc>Created using Neo4j (http://www.neo4j.com/)</desc><g class="layer relationships"><g class="relationship" transform="translate(126.99869009736204 185.93622474546945) rotate(512.8767169942239)"><path class="b-outline" fill="#A5ABB6" stroke="none" d="M 25 0.5 L 62.03637635202698 0.5 L 62.03637635202698 -0.5 L 25 -0.5 Z M 103.16528260202698 0.5 L 140.20165895405395 0.5 L 140.20165895405395 3.5 L 147.20165895405395 0 L 140.20165895405395 -3.5 L 140.20165895405395 -0.5 L 103.16528260202698 -0.5 Z"/><text text-anchor="middle" pointer-events="none" font-size="8px" fill="#000000" x="82.60082947702698" y="3" transform="rotate(180 82.60082947702698 0)" font-family="Helvetica Neue, Helvetica, Arial, sans-serif">LIVES_IN</text></g><g class="relationship" transform="translate(126.99869009736204 185.93622474546945) rotate(481.0589082293346)"><path class="b-outline" fill="#A5ABB6" stroke="none" d="M 25 0.5 L 31.62395858741033 0.5 L 31.62395858741033 -0.5 L 25 -0.5 Z M 69.63958358741033 0.5 L 76.26354217482066 0.5 L 76.26354217482066 3.5 L 83.26354217482066 0 L 76.26354217482066 -3.5 L 76.26354217482066 -0.5 L 69.63958358741033 -0.5 Z"/><text text-anchor="middle" pointer-events="none" font-size="8px" fill="#000000" x="50.63177108741033" y="3" transform="rotate(180 50.63177108741033 0)" font-family="Helvetica Neue, Helvetica, Arial, sans-serif">SPEAKS</text></g><g class="relationship" transform="translate(126.99869009736204 185.93622474546945) rotate(265.6957059181298)"><path class="b-outline" fill="#A5ABB6" stroke="none" d="M 25 0.5 L 79.10381242729734 0.5 L 79.10381242729734 -0.5 L 25 -0.5 Z M 117.11943742729734 0.5 L 171.22324985459468 0.5 L 171.22324985459468 3.5 L 178.22324985459468 0 L 171.22324985459468 -3.5 L 171.22324985459468 -0.5 L 117.11943742729734 -0.5 Z"/><text text-anchor="middle" pointer-events="none" font-size="8px" fill="#000000" x="98.11162492729734" y="3" transform="rotate(180 98.11162492729734 0)" font-family="Helvetica Neue, Helvetica, Arial, sans-serif">SPEAKS</text></g><g class="relationship" transform="translate(126.99869009736204 185.93622474546945) rotate(483.9284044805822)"><path class="b-outline" fill="#A5ABB6" stroke="none" d="M 25 0.5 L 79.63538147512544 0.5 L 79.63538147512544 -0.5 L 25 -0.5 Z M 117.65100647512544 0.5 L 172.28638795025088 0.5 L 172.28638795025088 3.5 L 179.28638795025088 0 L 172.28638795025088 -3.5 L 172.28638795025088 -0.5 L 117.65100647512544 -0.5 Z"/><text text-anchor="middle" pointer-events="none" font-size="8px" fill="#000000" x="98.64319397512544" y="3" transform="rotate(180 98.64319397512544 0)" font-family="Helvetica Neue, Helvetica, Arial, sans-serif">SPEAKS</text></g><g class="relationship" transform="translate(126.99869009736204 185.93622474546945) rotate(455.21641067401777)"><path class="b-outline" fill="#A5ABB6" stroke="none" d="M 25 0.5 L 64.04812636491062 0.5 L 64.04812636491062 -0.5 L 25 -0.5 Z M 112.73953261491062 0.5 L 151.78765897982123 0.5 L 151.78765897982123 3.5 L 158.78765897982123 0 L 151.78765897982123 -3.5 L 151.78765897982123 -0.5 L 112.73953261491062 -0.5 Z"/><text text-anchor="middle" pointer-events="none" font-size="8px" fill="#000000" x="88.39382948991062" y="3" transform="rotate(180 88.39382948991062 0)" font-family="Helvetica Neue, Helvetica, Arial, sans-serif">HAS_SKILL</text></g><g class="relationship" transform="translate(126.99869009736204 185.93622474546945) rotate(426.9056802833184)"><path class="b-outline" fill="#A5ABB6" stroke="none" d="M 25 0.5 L 76.87479477372207 0.5 L 76.87479477372207 -0.5 L 25 -0.5 Z M 125.56620102372207 0.5 L 177.44099579744415 0.5 L 177.44099579744415 3.5 L 184.44099579744415 0 L 177.44099579744415 -3.5 L 177.44099579744415 -0.5 L 125.56620102372207 -0.5 Z"/><text text-anchor="middle" pointer-events="none" font-size="8px" fill="#000000" x="101.22049789872207" y="3" font-family="Helvetica Neue, Helvetica, Arial, sans-serif">HAS_SKILL</text></g><g class="relationship" transform="translate(126.99869009736204 185.93622474546945) rotate(203.59950619506014)"><path class="b-outline" fill="#A5ABB6" stroke="none" d="M 25 0.5 L 84.7528511984229 0.5 L 84.7528511984229 -0.5 L 25 -0.5 Z M 133.4442574484229 0.5 L 193.1971086468458 0.5 L 193.1971086468458 3.5 L 200.1971086468458 0 L 193.1971086468458 -3.5 L 193.1971086468458 -0.5 L 133.4442574484229 -0.5 Z"/><text text-anchor="middle" pointer-events="none" font-size="8px" fill="#000000" x="109.0985543234229" y="3" transform="rotate(180 109.0985543234229 0)" font-family="Helvetica Neue, Helvetica, Arial, sans-serif">HAS_SKILL</text></g><g class="relationship" transform="translate(126.99869009736204 185.93622474546945) rotate(304.80543622447203)"><path class="b-outline" fill="#A5ABB6" stroke="none" d="M 25 0.5 L 34.96754434280628 0.5 L 34.96754434280628 -0.5 L 25 -0.5 Z M 83.65895059280628 0.5 L 93.62649493561256 0.5 L 93.62649493561256 3.5 L 100.62649493561256 0 L 93.62649493561256 -3.5 L 93.62649493561256 -0.5 L 83.65895059280628 -0.5 Z"/><text text-anchor="middle" pointer-events="none" font-size="8px" fill="#000000" x="59.31324746780628" y="3" font-family="Helvetica Neue, Helvetica, Arial, sans-serif">HAS_SKILL</text></g><g class="relationship" transform="translate(126.99869009736204 185.93622474546945) rotate(427.5712528635932)"><path class="b-outline" fill="#A5ABB6" stroke="none" d="M 25 0.5 L 28.74955599448485 0.5 L 28.74955599448485 -0.5 L 25 -0.5 Z M 77.44096224448485 0.5 L 81.1905182389697 0.5 L 81.1905182389697 3.5 L 88.1905182389697 0 L 81.1905182389697 -3.5 L 81.1905182389697 -0.5 L 77.44096224448485 -0.5 Z"/><text text-anchor="middle" pointer-events="none" font-size="8px" fill="#000000" x="53.09525911948485" y="3" font-family="Helvetica Neue, Helvetica, Arial, sans-serif">HAS_SKILL</text></g><g class="relationship" transform="translate(126.99869009736204 185.93622474546945) rotate(237.32948281282046)"><path class="b-outline" fill="#A5ABB6" stroke="none" d="M 25 0.5 L 46.582785040647636 0.5 L 46.582785040647636 -0.5 L 25 -0.5 Z M 107.26637879064764 0.5 L 128.84916383129527 0.5 L 128.84916383129527 3.5 L 135.84916383129527 0 L 128.84916383129527 -3.5 L 128.84916383129527 -0.5 L 107.26637879064764 -0.5 Z"/><text text-anchor="middle" pointer-events="none" font-size="8px" fill="#000000" x="76.92458191564764" y="3" transform="rotate(180 76.92458191564764 0)" font-family="Helvetica Neue, Helvetica, Arial, sans-serif">HAS_DEGREE</text></g><g class="relationship" transform="translate(126.99869009736204 185.93622474546945) rotate(398.70574706571074)"><path class="b-outline" fill="#A5ABB6" stroke="none" d="M 25 0.5 L 56.542706617234046 0.5 L 56.542706617234046 -0.5 L 25 -0.5 Z M 117.22630036723405 0.5 L 148.7690069844681 0.5 L 148.7690069844681 3.5 L 155.7690069844681 0 L 148.7690069844681 -3.5 L 148.7690069844681 -0.5 L 117.22630036723405 -0.5 Z"/><text text-anchor="middle" pointer-events="none" font-size="8px" fill="#000000" x="86.88450349223405" y="3" font-family="Helvetica Neue, Helvetica, Arial, sans-serif">HAS_DEGREE</text></g><g class="relationship" transform="translate(126.99869009736204 185.93622474546945) rotate(372.1701632754695)"><path class="b-outline" fill="#A5ABB6" stroke="none" d="M 25 0.5 L 26.323613469070615 0.5 L 26.323613469070615 -0.5 L 25 -0.5 Z M 72.33533221907061 0.5 L 73.65894568814123 0.5 L 73.65894568814123 3.5 L 80.65894568814123 0 L 73.65894568814123 -3.5 L 73.65894568814123 -0.5 L 72.33533221907061 -0.5 Z"/><text text-anchor="middle" pointer-events="none" font-size="8px" fill="#000000" x="49.329472844070615" y="3" font-family="Helvetica Neue, Helvetica, Arial, sans-serif">HAS_CE…</text></g><g class="relationship" transform="translate(126.99869009736204 185.93622474546945) rotate(369.1026807122184)"><path class="b-outline" fill="#A5ABB6" stroke="none" d="M 25 0.5 L 53.53060215688363 0.5 L 53.53060215688363 -0.5 L 25 -0.5 Z M 141.02278965688362 0.5 L 169.55339181376726 0.5 L 169.55339181376726 3.5 L 176.55339181376726 0 L 169.55339181376726 -3.5 L 169.55339181376726 -0.5 L 141.02278965688362 -0.5 Z"/><text text-anchor="middle" pointer-events="none" font-size="8px" fill="#000000" x="97.27669590688363" y="3" font-family="Helvetica Neue, Helvetica, Arial, sans-serif">HAS_CERTIFICATION</text></g><g class="relationship" transform="translate(126.99869009736204 185.93622474546945) rotate(285.5120217429186)"><path class="b-outline" fill="#A5ABB6" stroke="none" d="M 25 0.5 L 99.31048386773043 0.5 L 99.31048386773043 -0.5 L 25 -0.5 Z M 155.98626511773043 0.5 L 230.29674898546085 0.5 L 230.29674898546085 3.5 L 237.29674898546085 0 L 230.29674898546085 -3.5 L 230.29674898546085 -0.5 L 155.98626511773043 -0.5 Z"/><text text-anchor="middle" pointer-events="none" font-size="8px" fill="#000000" x="127.64837449273043" y="3" font-family="Helvetica Neue, Helvetica, Arial, sans-serif">HAS_HONOR</text></g><g class="relationship" transform="translate(126.99869009736204 185.93622474546945) rotate(339.83072769143314)"><path class="b-outline" fill="#A5ABB6" stroke="none" d="M 25 0.5 L 53.549932895696855 0.5 L 53.549932895696855 -0.5 L 25 -0.5 Z M 110.22571414569686 0.5 L 138.7756470413937 0.5 L 138.7756470413937 3.5 L 145.7756470413937 0 L 138.7756470413937 -3.5 L 138.7756470413937 -0.5 L 110.22571414569686 -0.5 Z"/><text text-anchor="middle" pointer-events="none" font-size="8px" fill="#000000" x="81.88782352069686" y="3" font-family="Helvetica Neue, Helvetica, Arial, sans-serif">HAS_HONOR</text></g><g class="relationship" transform="translate(126.99869009736204 185.93622474546945) rotate(200.68764062783657)"><path class="b-outline" fill="#A5ABB6" stroke="none" d="M 25 0.5 L 27.045978418475833 0.5 L 27.045978418475833 -0.5 L 25 -0.5 Z M 73.94441591847584 0.5 L 75.99039433695167 0.5 L 75.99039433695167 3.5 L 82.99039433695167 0 L 75.99039433695167 -3.5 L 75.99039433695167 -0.5 L 73.94441591847584 -0.5 Z"/><text text-anchor="middle" pointer-events="none" font-size="8px" fill="#000000" x="50.49519716847583" y="3" transform="rotate(180 50.49519716847583 0)" font-family="Helvetica Neue, Helvetica, Arial, sans-serif">HAS_HO…</text></g><g class="relationship" transform="translate(126.99869009736204 185.93622474546945) rotate(183.7650237721528)"><path class="b-outline" fill="#A5ABB6" stroke="none" d="M 25 0.5 L 64.7601895699493 0.5 L 64.7601895699493 -0.5 L 25 -0.5 Z M 120.8383145699493 0.5 L 160.5985041398986 0.5 L 160.5985041398986 3.5 L 167.5985041398986 0 L 160.5985041398986 -3.5 L 160.5985041398986 -0.5 L 120.8383145699493 -0.5 Z"/><text text-anchor="middle" pointer-events="none" font-size="8px" fill="#000000" x="92.7992520699493" y="3" transform="rotate(180 92.7992520699493 0)" font-family="Helvetica Neue, Helvetica, Arial, sans-serif">WORKED_AT</text></g><g class="relationship" transform="translate(-1.2798066246629132 -162.27196994372417) rotate(342.323237572625)"><path class="b-outline" fill="#A5ABB6" stroke="none" d="M 25 0.5 L 83.81649692300385 0.5 L 83.81649692300385 -0.5 L 25 -0.5 Z M 168.06259067300385 0.5 L 226.8790875960077 0.5 L 226.8790875960077 3.5 L 233.8790875960077 0 L 226.8790875960077 -3.5 L 226.8790875960077 -0.5 L 168.06259067300385 -0.5 Z"/><text text-anchor="middle" pointer-events="none" font-size="8px" fill="#000000" x="125.93954379800385" y="3" font-family="Helvetica Neue, Helvetica, Arial, sans-serif">HAS_SCHOLARSHIP</text></g><g class="relationship" transform="translate(-1.2798066246629132 -162.27196994372417) rotate(202.5386104239832)"><path class="b-outline" fill="#A5ABB6" stroke="none" d="M 25 0.5 L 79.45893786349204 0.5 L 79.45893786349204 -0.5 L 25 -0.5 Z M 120.58784411349204 0.5 L 175.04678197698408 0.5 L 175.04678197698408 3.5 L 182.04678197698408 0 L 175.04678197698408 -3.5 L 175.04678197698408 -0.5 L 120.58784411349204 -0.5 Z"/><text text-anchor="middle" pointer-events="none" font-size="8px" fill="#000000" x="100.02339098849204" y="3" transform="rotate(180 100.02339098849204 0)" font-family="Helvetica Neue, Helvetica, Arial, sans-serif">LIVES_IN</text></g><g class="relationship" transform="translate(-1.2798066246629132 -162.27196994372417) rotate(324.6137604482821)"><path class="b-outline" fill="#A5ABB6" stroke="none" d="M 25 0.5 L 125.11915693128998 0.5 L 125.11915693128998 -0.5 L 25 -0.5 Z M 163.13478193128998 0.5 L 263.25393886257996 0.5 L 263.25393886257996 3.5 L 270.25393886257996 0 L 263.25393886257996 -3.5 L 263.25393886257996 -0.5 L 163.13478193128998 -0.5 Z"/><text text-anchor="middle" pointer-events="none" font-size="8px" fill="#000000" x="144.12696943128998" y="3" font-family="Helvetica Neue, Helvetica, Arial, sans-serif">SPEAKS</text></g><g class="relationship" transform="translate(-1.2798066246629132 -162.27196994372417) rotate(362.89239551479017)"><path class="b-outline" fill="#A5ABB6" stroke="none" d="M 25 0.5 L 143.42941048108955 0.5 L 143.42941048108955 -0.5 L 25 -0.5 Z M 181.44503548108955 0.5 L 299.8744459621791 0.5 L 299.8744459621791 3.5 L 306.8744459621791 0 L 299.8744459621791 -3.5 L 299.8744459621791 -0.5 L 181.44503548108955 -0.5 Z"/><text text-anchor="middle" pointer-events="none" font-size="8px" fill="#000000" x="162.43722298108955" y="3" font-family="Helvetica Neue, Helvetica, Arial, sans-serif">SPEAKS</text></g><g class="relationship" transform="translate(-1.2798066246629132 -162.27196994372417) rotate(293.1172407389398)"><path class="b-outline" fill="#A5ABB6" stroke="none" d="M 25 0.5 L 78.90965757057566 0.5 L 78.90965757057566 -0.5 L 25 -0.5 Z M 116.92528257057566 0.5 L 170.83494014115132 0.5 L 170.83494014115132 3.5 L 177.83494014115132 0 L 170.83494014115132 -3.5 L 170.83494014115132 -0.5 L 116.92528257057566 -0.5 Z"/><text text-anchor="middle" pointer-events="none" font-size="8px" fill="#000000" x="97.91747007057566" y="3" font-family="Helvetica Neue, Helvetica, Arial, sans-serif">SPEAKS</text></g><g class="relationship" transform="translate(-1.2798066246629132 -162.27196994372417) rotate(412.1706614624867)"><path class="b-outline" fill="#A5ABB6" stroke="none" d="M 25 0.5 L 69.6361261572828 0.5 L 69.6361261572828 -0.5 L 25 -0.5 Z M 107.6517511572828 0.5 L 152.2878773145656 0.5 L 152.2878773145656 3.5 L 159.2878773145656 0 L 152.2878773145656 -3.5 L 152.2878773145656 -0.5 L 107.6517511572828 -0.5 Z"/><text text-anchor="middle" pointer-events="none" font-size="8px" fill="#000000" x="88.6439386572828" y="3" font-family="Helvetica Neue, Helvetica, Arial, sans-serif">SPEAKS</text></g><g class="relationship" transform="translate(-1.2798066246629132 -162.27196994372417) rotate(272.9408464841532)"><path class="b-outline" fill="#A5ABB6" stroke="none" d="M 25 0.5 L 64.72486370978984 0.5 L 64.72486370978984 -0.5 L 25 -0.5 Z M 113.41626995978984 0.5 L 153.1411336695797 0.5 L 153.1411336695797 3.5 L 160.1411336695797 0 L 153.1411336695797 -3.5 L 153.1411336695797 -0.5 L 113.41626995978984 -0.5 Z"/><text text-anchor="middle" pointer-events="none" font-size="8px" fill="#000000" x="89.07056683478984" y="3" font-family="Helvetica Neue, Helvetica, Arial, sans-serif">HAS_SKILL</text></g><g class="relationship" transform="translate(-1.2798066246629132 -162.27196994372417) rotate(311.9659819559811)"><path class="b-outline" fill="#A5ABB6" stroke="none" d="M 25 0.5 L 85.13439148234562 0.5 L 85.13439148234562 -0.5 L 25 -0.5 Z M 133.82579773234562 0.5 L 193.96018921469124 0.5 L 193.96018921469124 3.5 L 200.96018921469124 0 L 193.96018921469124 -3.5 L 193.96018921469124 -0.5 L 133.82579773234562 -0.5 Z"/><text text-anchor="middle" pointer-events="none" font-size="8px" fill="#000000" x="109.48009460734562" y="3" font-family="Helvetica Neue, Helvetica, Arial, sans-serif">HAS_SKILL</text></g><g class="relationship" transform="translate(-1.2798066246629132 -162.27196994372417) rotate(529.6443163245174)"><path class="b-outline" fill="#A5ABB6" stroke="none" d="M 25 0.5 L 94.67201098717601 0.5 L 94.67201098717601 -0.5 L 25 -0.5 Z M 143.363417237176 0.5 L 213.03542822435202 0.5 L 213.03542822435202 3.5 L 220.03542822435202 0 L 213.03542822435202 -3.5 L 213.03542822435202 -0.5 L 143.363417237176 -0.5 Z"/><text text-anchor="middle" pointer-events="none" font-size="8px" fill="#000000" x="119.01771411217601" y="3" transform="rotate(180 119.01771411217601 0)" font-family="Helvetica Neue, Helvetica, Arial, sans-serif">HAS_SKILL</text></g><g class="relationship" transform="translate(-1.2798066246629132 -162.27196994372417) rotate(220.97434475222303)"><path class="b-outline" fill="#A5ABB6" stroke="none" d="M 25 0.5 L 73.99145485048193 0.5 L 73.99145485048193 -0.5 L 25 -0.5 Z M 122.68286110048193 0.5 L 171.67431595096386 0.5 L 171.67431595096386 3.5 L 178.67431595096386 0 L 171.67431595096386 -3.5 L 171.67431595096386 -0.5 L 122.68286110048193 -0.5 Z"/><text text-anchor="middle" pointer-events="none" font-size="8px" fill="#000000" x="98.33715797548193" y="3" transform="rotate(180 98.33715797548193 0)" font-family="Helvetica Neue, Helvetica, Arial, sans-serif">HAS_SKILL</text></g><g class="relationship" transform="translate(-1.2798066246629132 -162.27196994372417) rotate(466.83537211752986)"><path class="b-outline" fill="#A5ABB6" stroke="none" d="M 25 0.5 L 106.95813529351247 0.5 L 106.95813529351247 -0.5 L 25 -0.5 Z M 155.64954154351247 0.5 L 237.60767683702494 0.5 L 237.60767683702494 3.5 L 244.60767683702494 0 L 237.60767683702494 -3.5 L 237.60767683702494 -0.5 L 155.64954154351247 -0.5 Z"/><text text-anchor="middle" pointer-events="none" font-size="8px" fill="#000000" x="131.30383841851247" y="3" transform="rotate(180 131.30383841851247 0)" font-family="Helvetica Neue, Helvetica, Arial, sans-serif">HAS_SKILL</text></g><g class="relationship" transform="translate(-1.2798066246629132 -162.27196994372417) rotate(410.7829446797985)"><path class="b-outline" fill="#A5ABB6" stroke="none" d="M 25 0.5 L 130.30525048283133 0.5 L 130.30525048283133 -0.5 L 25 -0.5 Z M 178.99665673283133 0.5 L 284.30190721566265 0.5 L 284.30190721566265 3.5 L 291.30190721566265 0 L 284.30190721566265 -3.5 L 284.30190721566265 -0.5 L 178.99665673283133 -0.5 Z"/><text text-anchor="middle" pointer-events="none" font-size="8px" fill="#000000" x="154.65095360783133" y="3" font-family="Helvetica Neue, Helvetica, Arial, sans-serif">HAS_SKILL</text></g><g class="relationship" transform="translate(-1.2798066246629132 -162.27196994372417) rotate(354.25649387651083)"><path class="b-outline" fill="#A5ABB6" stroke="none" d="M 25 0.5 L 154.058039171244 0.5 L 154.058039171244 -0.5 L 25 -0.5 Z M 202.749445421244 0.5 L 331.807484592488 0.5 L 331.807484592488 3.5 L 338.807484592488 0 L 331.807484592488 -3.5 L 331.807484592488 -0.5 L 202.749445421244 -0.5 Z"/><text text-anchor="middle" pointer-events="none" font-size="8px" fill="#000000" x="178.403742296244" y="3" font-family="Helvetica Neue, Helvetica, Arial, sans-serif">HAS_SKILL</text></g><g class="relationship" transform="translate(-1.2798066246629132 -162.27196994372417) rotate(438.97783881337546)"><path class="b-outline" fill="#A5ABB6" stroke="none" d="M 25 0.5 L 74.56148107220146 0.5 L 74.56148107220146 -0.5 L 25 -0.5 Z M 135.24507482220145 0.5 L 184.80655589440292 0.5 L 184.80655589440292 3.5 L 191.80655589440292 0 L 184.80655589440292 -3.5 L 184.80655589440292 -0.5 L 135.24507482220145 -0.5 Z"/><text text-anchor="middle" pointer-events="none" font-size="8px" fill="#000000" x="104.90327794720146" y="3" font-family="Helvetica Neue, Helvetica, Arial, sans-serif">HAS_DEGREE</text></g><g class="relationship" transform="translate(-1.2798066246629132 -162.27196994372417) rotate(232.44086781566762)"><path class="b-outline" fill="#A5ABB6" stroke="none" d="M 25 0.5 L 99.29065058178463 0.5 L 99.29065058178463 -0.5 L 25 -0.5 Z M 159.97424433178463 0.5 L 234.26489491356926 0.5 L 234.26489491356926 3.5 L 241.26489491356926 0 L 234.26489491356926 -3.5 L 234.26489491356926 -0.5 L 159.97424433178463 -0.5 Z"/><text text-anchor="middle" pointer-events="none" font-size="8px" fill="#000000" x="129.63244745678463" y="3" transform="rotate(180 129.63244745678463 0)" font-family="Helvetica Neue, Helvetica, Arial, sans-serif">HAS_DEGREE</text></g><g class="relationship" transform="translate(-1.2798066246629132 -162.27196994372417) rotate(181.8495754823483)"><path class="b-outline" fill="#A5ABB6" stroke="none" d="M 25 0.5 L 56.32676046017609 0.5 L 56.32676046017609 -0.5 L 25 -0.5 Z M 143.8189479601761 0.5 L 175.14570842035218 0.5 L 175.14570842035218 3.5 L 182.14570842035218 0 L 175.14570842035218 -3.5 L 175.14570842035218 -0.5 L 143.8189479601761 -0.5 Z"/><text text-anchor="middle" pointer-events="none" font-size="8px" fill="#000000" x="100.07285421017609" y="3" transform="rotate(180 100.07285421017609 0)" font-family="Helvetica Neue, Helvetica, Arial, sans-serif">HAS_CERTIFICATION</text></g><g class="relationship" transform="translate(-1.2798066246629132 -162.27196994372417) rotate(521.0463316456186)"><path class="b-outline" fill="#A5ABB6" stroke="none" d="M 25 0.5 L 121.04054111794736 0.5 L 121.04054111794736 -0.5 L 25 -0.5 Z M 208.53272861794736 0.5 L 304.5732697358947 0.5 L 304.5732697358947 3.5 L 311.5732697358947 0 L 304.5732697358947 -3.5 L 304.5732697358947 -0.5 L 208.53272861794736 -0.5 Z"/><text text-anchor="middle" pointer-events="none" font-size="8px" fill="#000000" x="164.78663486794736" y="3" transform="rotate(180 164.78663486794736 0)" font-family="Helvetica Neue, Helvetica, Arial, sans-serif">HAS_CERTIFICATION</text></g><g class="relationship" transform="translate(-1.2798066246629132 -162.27196994372417) rotate(482.65175133682004)"><path class="b-outline" fill="#A5ABB6" stroke="none" d="M 25 0.5 L 91.7902954772936 0.5 L 91.7902954772936 -0.5 L 25 -0.5 Z M 179.2824829772936 0.5 L 246.0727784545872 0.5 L 246.0727784545872 3.5 L 253.0727784545872 0 L 246.0727784545872 -3.5 L 246.0727784545872 -0.5 L 179.2824829772936 -0.5 Z"/><text text-anchor="middle" pointer-events="none" font-size="8px" fill="#000000" x="135.5363892272936" y="3" transform="rotate(180 135.5363892272936 0)" font-family="Helvetica Neue, Helvetica, Arial, sans-serif">HAS_CERTIFICATION</text></g><g class="relationship" transform="translate(-1.2798066246629132 -162.27196994372417) rotate(385.69277132735215)"><path class="b-outline" fill="#A5ABB6" stroke="none" d="M 25 0.5 L 78.2610437863914 0.5 L 78.2610437863914 -0.5 L 25 -0.5 Z M 134.93682503639138 0.5 L 188.1978688227828 0.5 L 188.1978688227828 3.5 L 195.1978688227828 0 L 188.1978688227828 -3.5 L 188.1978688227828 -0.5 L 134.93682503639138 -0.5 Z"/><text text-anchor="middle" pointer-events="none" font-size="8px" fill="#000000" x="106.5989344113914" y="3" font-family="Helvetica Neue, Helvetica, Arial, sans-serif">HAS_HONOR</text></g><g class="relationship" transform="translate(-1.2798066246629132 -162.27196994372417) rotate(496.2401371634455)"><path class="b-outline" fill="#A5ABB6" stroke="none" d="M 25 0.5 L 103.9874114348431 0.5 L 103.9874114348431 -0.5 L 25 -0.5 Z M 160.6631926848431 0.5 L 239.6506041196862 0.5 L 239.6506041196862 3.5 L 246.6506041196862 0 L 239.6506041196862 -3.5 L 239.6506041196862 -0.5 L 160.6631926848431 -0.5 Z"/><text text-anchor="middle" pointer-events="none" font-size="8px" fill="#000000" x="132.3253020598431" y="3" transform="rotate(180 132.3253020598431 0)" font-family="Helvetica Neue, Helvetica, Arial, sans-serif">HAS_HONOR</text></g><g class="relationship" transform="translate(-1.2798066246629132 -162.27196994372417) rotate(510.1982569783905)"><path class="b-outline" fill="#A5ABB6" stroke="none" d="M 25 0.5 L 114.11323296021396 0.5 L 114.11323296021396 -0.5 L 25 -0.5 Z M 170.19135796021396 0.5 L 259.3045909204279 0.5 L 259.3045909204279 3.5 L 266.3045909204279 0 L 259.3045909204279 -3.5 L 259.3045909204279 -0.5 L 170.19135796021396 -0.5 Z"/><text text-anchor="middle" pointer-events="none" font-size="8px" fill="#000000" x="142.15229546021396" y="3" transform="rotate(180 142.15229546021396 0)" font-family="Helvetica Neue, Helvetica, Arial, sans-serif">WORKED_AT</text></g><g class="relationship" transform="translate(-1.2798066246629132 -162.27196994372417) rotate(443.77138512081956)"><path class="b-outline" fill="#A5ABB6" stroke="none" d="M 25 0.5 L 29.51803446464543 0.5 L 29.51803446464543 -0.5 L 25 -0.5 Z M 85.59615946464544 0.5 L 90.11419392929086 0.5 L 90.11419392929086 3.5 L 97.11419392929086 0 L 90.11419392929086 -3.5 L 90.11419392929086 -0.5 L 85.59615946464544 -0.5 Z"/><text text-anchor="middle" pointer-events="none" font-size="8px" fill="#000000" x="57.55709696464543" y="3" font-family="Helvetica Neue, Helvetica, Arial, sans-serif">WORKED_AT</text></g><g class="relationship" transform="translate(-1.2798066246629132 -162.27196994372417) rotate(247.2484630467393)"><path class="b-outline" fill="#A5ABB6" stroke="none" d="M 25 0.5 L 65.61618185361442 0.5 L 65.61618185361442 -0.5 L 25 -0.5 Z M 121.69430685361442 0.5 L 162.31048870722884 0.5 L 162.31048870722884 3.5 L 169.31048870722884 0 L 162.31048870722884 -3.5 L 162.31048870722884 -0.5 L 121.69430685361442 -0.5 Z"/><text text-anchor="middle" pointer-events="none" font-size="8px" fill="#000000" x="93.65524435361442" y="3" transform="rotate(180 93.65524435361442 0)" font-family="Helvetica Neue, Helvetica, Arial, sans-serif">WORKED_AT</text></g></g><g class="layer nodes"><g class="node" aria-label="graph-node130" transform="translate(126.99869009736204,185.93622474546945)"><circle class="b-outline" cx="0" cy="0" r="25" fill="#569480" stroke="#447666" stroke-width="2px"/><text class="caption" text-anchor="middle" pointer-events="none" x="0" y="0" font-size="10px" fill="#FFFFFF" font-family="Helvetica Neue, Helvetica, Arial, sans-serif"> Stacy</text><text class="caption" text-anchor="middle" pointer-events="none" x="0" y="10" font-size="10px" fill="#FFFFFF" font-family="Helvetica Neue, Helvetica, Arial, sans-serif"> Manni…</text></g><g class="node" aria-label="graph-node510" transform="translate(-26.265541472252405,264.4441012159479)"><circle class="b-outline" cx="0" cy="0" r="25" fill="#A5ABB6" stroke="#9AA1AC" stroke-width="2px"/><text class="caption" text-anchor="middle" pointer-events="none" x="0" y="5" font-size="10px" fill="#FFFFFF" font-family="Helvetica Neue, Helvetica, Arial, sans-serif"> Finland</text></g><g class="node" aria-label="graph-node588" transform="translate(71.14346164399873,278.67881484657545)"><circle class="b-outline" cx="0" cy="0" r="25" fill="#A5ABB6" stroke="#9AA1AC" stroke-width="2px"/><text class="caption" text-anchor="middle" pointer-events="none" x="0" y="5" font-size="10px" fill="#FFFFFF" font-family="Helvetica Neue, Helvetica, Arial, sans-serif"> german</text></g><g class="node" aria-label="graph-node593" transform="translate(111.74608173441844,-16.713836245366863)"><circle class="b-outline" cx="0" cy="0" r="25" fill="#A5ABB6" stroke="#9AA1AC" stroke-width="2px"/><text class="caption" text-anchor="middle" pointer-events="none" x="0" y="5" font-size="10px" fill="#FFFFFF" font-family="Helvetica Neue, Helvetica, Arial, sans-serif"> malay/in…</text></g><g class="node" aria-label="graph-node597" transform="translate(12.974910627266812,355.43992977021367)"><circle class="b-outline" cx="0" cy="0" r="25" fill="#A5ABB6" stroke="#9AA1AC" stroke-width="2px"/><text class="caption" text-anchor="middle" pointer-events="none" x="0" y="5" font-size="10px" fill="#FFFFFF" font-family="Helvetica Neue, Helvetica, Arial, sans-serif"> english</text></g><g class="node" aria-label="graph-node1009" transform="translate(110.28911717151998,368.96270852833356)"><circle class="b-outline" cx="0" cy="0" r="25" fill="#A5ABB6" stroke="#9AA1AC" stroke-width="2px"/><text class="caption" text-anchor="middle" pointer-events="none" x="0" y="5" font-size="10px" fill="#FFFFFF" font-family="Helvetica Neue, Helvetica, Arial, sans-serif"> javascript</text></g><g class="node" aria-label="graph-node1018" transform="translate(209.1510669959813,378.5927006047881)"><circle class="b-outline" cx="0" cy="0" r="25" fill="#A5ABB6" stroke="#9AA1AC" stroke-width="2px"/><text class="caption" text-anchor="middle" pointer-events="none" x="0" y="0" font-size="10px" fill="#FFFFFF" font-family="Helvetica Neue, Helvetica, Arial, sans-serif"> critical</text><text class="caption" text-anchor="middle" pointer-events="none" x="0" y="10" font-size="10px" fill="#FFFFFF" font-family="Helvetica Neue, Helvetica, Arial, sans-serif"> thinking</text></g><g class="node" aria-label="graph-node1031" transform="translate(-79.36432408804689,95.78055870493719)"><circle class="b-outline" cx="0" cy="0" r="25" fill="#A5ABB6" stroke="#9AA1AC" stroke-width="2px"/><text class="caption" text-anchor="middle" pointer-events="none" x="0" y="5" font-size="10px" fill="#FFFFFF" font-family="Helvetica Neue, Helvetica, Arial, sans-serif"> negotiati…</text></g><g class="node" aria-label="graph-node1034" transform="translate(198.70522253690763,82.78493083548554)"><circle class="b-outline" cx="0" cy="0" r="25" fill="#A5ABB6" stroke="#9AA1AC" stroke-width="2px"/><text class="caption" text-anchor="middle" pointer-events="none" x="0" y="5" font-size="10px" fill="#FFFFFF" font-family="Helvetica Neue, Helvetica, Arial, sans-serif"> sql</text></g><g class="node" aria-label="graph-node1042" transform="translate(170.18474424544337,290.5644147629094)"><circle class="b-outline" cx="0" cy="0" r="25" fill="#A5ABB6" stroke="#9AA1AC" stroke-width="2px"/><text class="caption" text-anchor="middle" pointer-events="none" x="0" y="5" font-size="10px" fill="#FFFFFF" font-family="Helvetica Neue, Helvetica, Arial, sans-serif"> leadership</text></g><g class="node" aria-label="graph-node1053" transform="translate(40.171148368102635,50.53522215508761)"><circle class="b-outline" cx="0" cy="0" r="25" fill="#A5ABB6" stroke="#9AA1AC" stroke-width="2px"/><text class="caption" text-anchor="middle" pointer-events="none" x="0" y="5" font-size="10px" fill="#FFFFFF" font-family="Helvetica Neue, Helvetica, Arial, sans-serif"> nursing</text></g><g class="node" aria-label="graph-node1055" transform="translate(268.0649821960822,298.9748691095507)"><circle class="b-outline" cx="0" cy="0" r="25" fill="#A5ABB6" stroke="#9AA1AC" stroke-width="2px"/><text class="caption" text-anchor="middle" pointer-events="none" x="0" y="5" font-size="10px" fill="#FFFFFF" font-family="Helvetica Neue, Helvetica, Arial, sans-serif"> art</text></g><g class="node" aria-label="graph-node1068" transform="translate(230.28303645365554,208.21079773088894)"><circle class="b-outline" cx="0" cy="0" r="25" fill="#A5ABB6" stroke="#9AA1AC" stroke-width="2px"/><text class="caption" text-anchor="middle" pointer-events="none" x="0" y="0" font-size="10px" fill="#FFFFFF" font-family="Helvetica Neue, Helvetica, Arial, sans-serif"> google</text><text class="caption" text-anchor="middle" pointer-events="none" x="0" y="10" font-size="10px" fill="#FFFFFF" font-family="Helvetica Neue, Helvetica, Arial, sans-serif"> profes…</text></g><g class="node" aria-label="graph-node1083" transform="translate(326.0138003028147,217.82283104883018)"><circle class="b-outline" cx="0" cy="0" r="25" fill="#A5ABB6" stroke="#9AA1AC" stroke-width="2px"/><text class="caption" text-anchor="middle" pointer-events="none" x="0" y="-5" font-size="10px" fill="#FFFFFF" font-family="Helvetica Neue, Helvetica, Arial, sans-serif"> osha</text><text class="caption" text-anchor="middle" pointer-events="none" x="0" y="5" font-size="10px" fill="#FFFFFF" font-family="Helvetica Neue, Helvetica, Arial, sans-serif"> safety</text><text class="caption" text-anchor="middle" pointer-events="none" x="0" y="15" font-size="10px" fill="#FFFFFF" font-family="Helvetica Neue, Helvetica, Arial, sans-serif"> certifi</text></g><g class="node" aria-label="graph-node1095" transform="translate(197.14747905176273,-66.80619736956211)"><circle class="b-outline" cx="0" cy="0" r="25" fill="#A5ABB6" stroke="#9AA1AC" stroke-width="2px"/><text class="caption" text-anchor="middle" pointer-events="none" x="0" y="5" font-size="10px" fill="#FFFFFF" font-family="Helvetica Neue, Helvetica, Arial, sans-serif"> outstand…</text></g><g class="node" aria-label="graph-node1110" transform="translate(287.30204503593114,127.05366350832712)"><circle class="b-outline" cx="0" cy="0" r="25" fill="#A5ABB6" stroke="#9AA1AC" stroke-width="2px"/><text class="caption" text-anchor="middle" pointer-events="none" x="0" y="5" font-size="10px" fill="#FFFFFF" font-family="Helvetica Neue, Helvetica, Arial, sans-serif"> salutator…</text></g><g class="node" aria-label="graph-node1112" transform="translate(25.97148855400289,147.7861288429974)"><circle class="b-outline" cx="0" cy="0" r="25" fill="#A5ABB6" stroke="#9AA1AC" stroke-width="2px"/><text class="caption" text-anchor="middle" pointer-events="none" x="0" y="-5" font-size="10px" fill="#FFFFFF" font-family="Helvetica Neue, Helvetica, Arial, sans-serif"> top</text><text class="caption" text-anchor="middle" pointer-events="none" x="0" y="5" font-size="10px" fill="#FFFFFF" font-family="Helvetica Neue, Helvetica, Arial, sans-serif"> performer</text><text class="caption" text-anchor="middle" pointer-events="none" x="0" y="15" font-size="10px" fill="#FFFFFF" font-family="Helvetica Neue, Helvetica, Arial, sans-serif"> awa…</text></g><g class="node" aria-label="graph-node1190" transform="translate(-65.18413626000617,173.28928637208472)"><circle class="b-outline" cx="0" cy="0" r="25" fill="#A5ABB6" stroke="#9AA1AC" stroke-width="2px"/><text class="caption" text-anchor="middle" pointer-events="none" x="0" y="5" font-size="10px" fill="#FFFFFF" font-family="Helvetica Neue, Helvetica, Arial, sans-serif"> qualcomm</text></g><g class="node" aria-label="graph-node7" transform="translate(-1.2798066246629132,-162.27196994372417)"><circle class="b-outline" cx="0" cy="0" r="25" fill="#569480" stroke="#447666" stroke-width="2px"/><text class="caption" text-anchor="middle" pointer-events="none" x="0" y="5" font-size="10px" fill="#FFFFFF" font-family="Helvetica Neue, Helvetica, Arial, sans-serif"> Christop…</text></g><g class="node" aria-label="graph-node35" transform="translate(245.3762298382366,-240.879741003297)"><circle class="b-outline" cx="0" cy="0" r="25" fill="#A5ABB6" stroke="#9AA1AC" stroke-width="2px"/><text class="caption" text-anchor="middle" pointer-events="none" x="0" y="0" font-size="10px" fill="#FFFFFF" font-family="Helvetica Neue, Helvetica, Arial, sans-serif"> Future</text><text class="caption" text-anchor="middle" pointer-events="none" x="0" y="10" font-size="10px" fill="#FFFFFF" font-family="Helvetica Neue, Helvetica, Arial, sans-serif"> Entrep…</text></g><g class="node" aria-label="graph-node487" transform="translate(-192.51265362858038,-241.6342289450975)"><circle class="b-outline" cx="0" cy="0" r="25" fill="#A5ABB6" stroke="#9AA1AC" stroke-width="2px"/><text class="caption" text-anchor="middle" pointer-events="none" x="0" y="5" font-size="10px" fill="#FFFFFF" font-family="Helvetica Neue, Helvetica, Arial, sans-serif"> Pakistan</text></g><g class="node" aria-label="graph-node586" transform="translate(239.43095545368317,-333.2492123870679)"><circle class="b-outline" cx="0" cy="0" r="25" fill="#A5ABB6" stroke="#9AA1AC" stroke-width="2px"/><text class="caption" text-anchor="middle" pointer-events="none" x="0" y="5" font-size="10px" fill="#FFFFFF" font-family="Helvetica Neue, Helvetica, Arial, sans-serif"> french</text></g><g class="node selected" aria-label="graph-node589" transform="translate(330.1718522843913,-145.52545719810135)"><circle class="b-outline" cx="0" cy="0" r="25" fill="#A5ABB6" stroke="#9AA1AC" stroke-width="2px"/><text class="caption" text-anchor="middle" pointer-events="none" x="0" y="5" font-size="10px" fill="#FFFFFF" font-family="Helvetica Neue, Helvetica, Arial, sans-serif"> japanese</text></g><g class="node" aria-label="graph-node591" transform="translate(78.35600625852379,-348.8199537133123)"><circle class="b-outline" cx="0" cy="0" r="25" fill="#A5ABB6" stroke="#9AA1AC" stroke-width="2px"/><text class="caption" text-anchor="middle" pointer-events="none" x="0" y="5" font-size="10px" fill="#FFFFFF" font-family="Helvetica Neue, Helvetica, Arial, sans-serif"> arabic</text></g><g class="node" aria-label="graph-node1006" transform="translate(8.218844393402119,-347.16927929487235)"><circle class="b-outline" cx="0" cy="0" r="25" fill="#A5ABB6" stroke="#9AA1AC" stroke-width="2px"/><text class="caption" text-anchor="middle" pointer-events="none" x="0" y="5" font-size="10px" fill="#FFFFFF" font-family="Helvetica Neue, Helvetica, Arial, sans-serif"> autocad</text></g><g class="node" aria-label="graph-node1010" transform="translate(149.81734585746437,-330.2828553700317)"><circle class="b-outline" cx="0" cy="0" r="25" fill="#A5ABB6" stroke="#9AA1AC" stroke-width="2px"/><text class="caption" text-anchor="middle" pointer-events="none" x="0" y="5" font-size="10px" fill="#FFFFFF" font-family="Helvetica Neue, Helvetica, Arial, sans-serif"> networki…</text></g><g class="node" aria-label="graph-node1022" transform="translate(-242.32380423421094,-118.2248099728501)"><circle class="b-outline" cx="0" cy="0" r="25" fill="#A5ABB6" stroke="#9AA1AC" stroke-width="2px"/><text class="caption" text-anchor="middle" pointer-events="none" x="0" y="5" font-size="10px" fill="#FFFFFF" font-family="Helvetica Neue, Helvetica, Arial, sans-serif"> html</text></g><g class="node" aria-label="graph-node1023" transform="translate(-155.05458060235483,-295.82550178097216)"><circle class="b-outline" cx="0" cy="0" r="25" fill="#A5ABB6" stroke="#9AA1AC" stroke-width="2px"/><text class="caption" text-anchor="middle" pointer-events="none" x="0" y="5" font-size="10px" fill="#FFFFFF" font-family="Helvetica Neue, Helvetica, Arial, sans-serif"> photoshop</text></g><g class="node" aria-label="graph-node1038" transform="translate(360.70131605524347,-198.68011008995978)"><circle class="b-outline" cx="0" cy="0" r="25" fill="#A5ABB6" stroke="#9AA1AC" stroke-width="2px"/><text class="caption" text-anchor="middle" pointer-events="none" x="0" y="0" font-size="10px" fill="#FFFFFF" font-family="Helvetica Neue, Helvetica, Arial, sans-serif"> financial</text><text class="caption" text-anchor="middle" pointer-events="none" x="0" y="10" font-size="10px" fill="#FFFFFF" font-family="Helvetica Neue, Helvetica, Arial, sans-serif"> analysis</text></g><g class="node" aria-label="graph-node1057" transform="translate(-163.58953091532112,-373.3467142027771)"><circle class="b-outline" cx="0" cy="0" r="25" fill="#A5ABB6" stroke="#9AA1AC" stroke-width="2px"/><text class="caption" text-anchor="middle" pointer-events="none" x="0" y="5" font-size="10px" fill="#FFFFFF" font-family="Helvetica Neue, Helvetica, Arial, sans-serif"> physics</text></g><g class="node" aria-label="graph-node1076" transform="translate(-208.3175937656488,-168.95771692767275)"><circle class="b-outline" cx="0" cy="0" r="25" fill="#A5ABB6" stroke="#9AA1AC" stroke-width="2px"/><text class="caption" text-anchor="middle" pointer-events="none" x="0" y="-5" font-size="10px" fill="#FFFFFF" font-family="Helvetica Neue, Helvetica, Arial, sans-serif"> leed</text><text class="caption" text-anchor="middle" pointer-events="none" x="0" y="5" font-size="10px" fill="#FFFFFF" font-family="Helvetica Neue, Helvetica, Arial, sans-serif"> green</text><text class="caption" text-anchor="middle" pointer-events="none" x="0" y="15" font-size="10px" fill="#FFFFFF" font-family="Helvetica Neue, Helvetica, Arial, sans-serif"> ass…</text></g><g class="node" aria-label="graph-node1078" transform="translate(-319.60458990809855,-52.95180598361543)"><circle class="b-outline" cx="0" cy="0" r="25" fill="#A5ABB6" stroke="#9AA1AC" stroke-width="2px"/><text class="caption" text-anchor="middle" pointer-events="none" x="0" y="0" font-size="10px" fill="#FFFFFF" font-family="Helvetica Neue, Helvetica, Arial, sans-serif"> microsoft</text><text class="caption" text-anchor="middle" pointer-events="none" x="0" y="10" font-size="10px" fill="#FFFFFF" font-family="Helvetica Neue, Helvetica, Arial, sans-serif"> certified</text></g><g class="node" aria-label="graph-node1086" transform="translate(-151.3088283467439,71.85569343369328)"><circle class="b-outline" cx="0" cy="0" r="25" fill="#A5ABB6" stroke="#9AA1AC" stroke-width="2px"/><text class="caption" text-anchor="middle" pointer-events="none" x="0" y="0" font-size="10px" fill="#FFFFFF" font-family="Helvetica Neue, Helvetica, Arial, sans-serif"> hvac</text><text class="caption" text-anchor="middle" pointer-events="none" x="0" y="10" font-size="10px" fill="#FFFFFF" font-family="Helvetica Neue, Helvetica, Arial, sans-serif"> certific…</text></g><g class="node" aria-label="graph-node1111" transform="translate(-197.4780741099592,25.61174556764896)"><circle class="b-outline" cx="0" cy="0" r="25" fill="#A5ABB6" stroke="#9AA1AC" stroke-width="2px"/><text class="caption" text-anchor="middle" pointer-events="none" x="0" y="0" font-size="10px" fill="#FFFFFF" font-family="Helvetica Neue, Helvetica, Arial, sans-serif"> employee</text><text class="caption" text-anchor="middle" pointer-events="none" x="0" y="10" font-size="10px" fill="#FFFFFF" font-family="Helvetica Neue, Helvetica, Arial, sans-serif">mo…</text></g><g class="node" aria-label="graph-node1129" transform="translate(-254.05946277634374,-17.493483533774864)"><circle class="b-outline" cx="0" cy="0" r="25" fill="#A5ABB6" stroke="#9AA1AC" stroke-width="2px"/><text class="caption" text-anchor="middle" pointer-events="none" x="0" y="5" font-size="10px" fill="#FFFFFF" font-family="Helvetica Neue, Helvetica, Arial, sans-serif"> nvidia</text></g><g class="node" aria-label="graph-node1159" transform="translate(11.969076023053375,-40.8786280027944)"><circle class="b-outline" cx="0" cy="0" r="25" fill="#A5ABB6" stroke="#9AA1AC" stroke-width="2px"/><text class="caption" text-anchor="middle" pointer-events="none" x="0" y="5" font-size="10px" fill="#FFFFFF" font-family="Helvetica Neue, Helvetica, Arial, sans-serif"> kfc</text></g><g class="node" aria-label="graph-node1197" transform="translate(-76.42660938372671,-341.4632756946798)"><circle class="b-outline" cx="0" cy="0" r="25" fill="#A5ABB6" stroke="#9AA1AC" stroke-width="2px"/><text class="caption" text-anchor="middle" pointer-events="none" x="0" y="5" font-size="10px" fill="#FFFFFF" font-family="Helvetica Neue, Helvetica, Arial, sans-serif"> unilever</text></g></g></svg>